<svg width="18" height="16" viewBox="0 0 18 16" fill="none" xmlns="http://www.w3.org/2000/svg">
<path d="M11.5365 14.75C11.499 14.75 11.4552 14.7437 11.4177 14.7313C10.1615 14.375 8.84275 14.375 7.5865 14.7313C7.35525 14.7938 7.1115 14.6625 7.049 14.4313C6.98025 14.2 7.11775 13.9562 7.349 13.8937C8.7615 13.4938 10.249 13.4938 11.6615 13.8937C11.8927 13.9625 12.0302 14.2 11.9615 14.4313C11.899 14.625 11.724 14.75 11.5365 14.75Z" fill="#7B7269"/>
<path d="M14.0094 4.97543C13.3594 3.66293 12.1031 2.69418 10.6469 2.37543C9.12187 2.03793 7.55938 2.40043 6.36563 3.36293C5.16563 4.31918 4.48438 5.75043 4.48438 7.28168C4.48438 8.90043 5.45313 10.5942 6.91563 11.5754V12.0942C6.90937 12.2692 6.90313 12.5379 7.11562 12.7567C7.33437 12.9817 7.65937 13.0067 7.91562 13.0067H11.1219C11.4594 13.0067 11.7156 12.9129 11.8906 12.7379C12.1281 12.4942 12.1219 12.1817 12.1156 12.0129V11.5754C14.0531 10.2692 15.2719 7.51293 14.0094 4.97543ZM10.5781 8.26293L9.90937 9.42543C9.82187 9.57543 9.66562 9.66293 9.50312 9.66293C9.42188 9.66293 9.34062 9.64418 9.27187 9.60043C9.04688 9.46918 8.97188 9.18168 9.09688 8.96293L9.62812 8.03793H9.10312C8.79062 8.03793 8.53437 7.90043 8.39687 7.66918C8.25937 7.43168 8.27187 7.14418 8.42812 6.86918L9.09688 5.70668C9.22813 5.48168 9.51562 5.40668 9.73438 5.53168C9.95937 5.66293 10.0344 5.95043 9.90937 6.16918L9.37813 7.09418H9.90312C10.2156 7.09418 10.4719 7.23168 10.6094 7.46293C10.7469 7.70043 10.7344 7.99418 10.5781 8.26293Z" fill="#7B7269"/>
<rect x="1.29456" y="2.8024" width="2" height="18.2296" transform="rotate(-48.9323 1.29456 2.8024)" fill="#7B7269" stroke="#FDFAF7"/>
</svg>
