<svg width="15" height="15" viewBox="0 0 15 15" fill="none" xmlns="http://www.w3.org/2000/svg">
<path d="M9.5365 13.75C9.499 13.75 9.45525 13.7437 9.41775 13.7313C8.1615 13.375 6.84275 13.375 5.5865 13.7313C5.35525 13.7938 5.1115 13.6625 5.049 13.4313C4.98025 13.2 5.11775 12.9562 5.349 12.8937C6.7615 12.4938 8.249 12.4938 9.6615 12.8937C9.89275 12.9625 10.0302 13.2 9.9615 13.4313C9.899 13.625 9.724 13.75 9.5365 13.75Z" fill="#7B7269"/>
<path d="M12.0094 3.97543C11.3594 2.66293 10.1031 1.69418 8.64687 1.37543C7.12187 1.03793 5.55938 1.40043 4.36563 2.36293C3.16563 3.31918 2.48438 4.75043 2.48438 6.28168C2.48438 7.90043 3.45313 9.59418 4.91563 10.5754V11.0942C4.90937 11.2692 4.90313 11.5379 5.11562 11.7567C5.33437 11.9817 5.65937 12.0067 5.91562 12.0067H9.12187C9.45937 12.0067 9.71562 11.9129 9.89062 11.7379C10.1281 11.4942 10.1219 11.1817 10.1156 11.0129V10.5754C12.0531 9.26918 13.2719 6.51293 12.0094 3.97543ZM8.57812 7.26293L7.90937 8.42543C7.82187 8.57543 7.66562 8.66293 7.50312 8.66293C7.42188 8.66293 7.34062 8.64418 7.27187 8.60043C7.04688 8.46918 6.97188 8.18168 7.09688 7.96293L7.62812 7.03793H7.10312C6.79062 7.03793 6.53437 6.90043 6.39687 6.66918C6.25937 6.43168 6.27187 6.14418 6.42812 5.86918L7.09688 4.70668C7.22813 4.48168 7.51562 4.40668 7.73438 4.53168C7.95937 4.66293 8.03437 4.95043 7.90937 5.16918L7.37813 6.09418H7.90312C8.21562 6.09418 8.47188 6.23168 8.60938 6.46293C8.74688 6.70043 8.73438 6.99418 8.57812 7.26293Z" fill="#7B7269"/>
</svg>
