<svg width="15" height="8" viewBox="0 0 15 8" fill="none" xmlns="http://www.w3.org/2000/svg">
<path d="M1 2.57812V5.39062C1 5.51495 0.947322 5.63417 0.853553 5.72208C0.759785 5.80999 0.632608 5.85938 0.5 5.85938C0.367392 5.85938 0.240215 5.80999 0.146447 5.72208C0.0526784 5.63417 0 5.51495 0 5.39062V2.57812C0 2.4538 0.0526784 2.33458 0.146447 2.24667C0.240215 2.15876 0.367392 2.10938 0.5 2.10938C0.632608 2.10938 0.759785 2.15876 0.853553 2.24667C0.947322 2.33458 1 2.4538 1 2.57812ZM14.5 4.92188H13V3.04688H14.5C14.6326 3.04688 14.7598 2.99749 14.8536 2.90958C14.9473 2.82167 15 2.70245 15 2.57812C15 2.4538 14.9473 2.33458 14.8536 2.24667C14.7598 2.15876 14.6326 2.10938 14.5 2.10938H12.9425C12.876 1.79116 12.6979 1.50294 12.4365 1.29058C12.1751 1.07823 11.8454 0.95394 11.5 0.9375H9.25V0.46875C9.25 0.34443 9.19732 0.225201 9.10355 0.137294C9.00979 0.0493861 8.88261 0 8.75 0H2.905C2.53237 0 2.175 0.138774 1.91151 0.385795C1.64803 0.632816 1.5 0.967848 1.5 1.31719V6.65156C1.5 7.0009 1.64803 7.33593 1.91151 7.58295C2.175 7.82998 2.53237 7.96875 2.905 7.96875H8.75C8.88261 7.96875 9.00979 7.91936 9.10355 7.83146C9.19732 7.74355 9.25 7.62432 9.25 7.5V1.875H11.5C11.77 1.875 12 2.18437 12 2.55234V5.41641C12 5.78438 11.77 6.09375 11.5 6.09375H10.25C10.1174 6.09375 9.99021 6.14314 9.89645 6.23104C9.80268 6.31895 9.75 6.43818 9.75 6.5625C9.75 6.68682 9.80268 6.80605 9.89645 6.89396C9.99021 6.98186 10.1174 7.03125 10.25 7.03125H11.5C11.8454 7.01481 12.1751 6.89052 12.4365 6.67817C12.6979 6.46581 12.876 6.17759 12.9425 5.85938H14.5C14.6326 5.85938 14.7598 5.80999 14.8536 5.72208C14.9473 5.63417 15 5.51495 15 5.39062C15 5.2663 14.9473 5.14708 14.8536 5.05917C14.7598 4.97126 14.6326 4.92188 14.5 4.92188Z" fill="#7B7269"/>
</svg>
