<svg width="18" height="16" viewBox="0 0 18 16" fill="none" xmlns="http://www.w3.org/2000/svg">
<path d="M3.5 7.09381V9.90631C3.5 10.0306 3.44732 10.1499 3.35355 10.2378C3.25979 10.3257 3.13261 10.3751 3 10.3751C2.86739 10.3751 2.74021 10.3257 2.64645 10.2378C2.55268 10.1499 2.5 10.0306 2.5 9.90631V7.09381C2.5 6.96949 2.55268 6.85026 2.64645 6.76235C2.74021 6.67445 2.86739 6.62506 3 6.62506C3.13261 6.62506 3.25979 6.67445 3.35355 6.76235C3.44732 6.85026 3.5 6.96949 3.5 7.09381ZM17 9.43756H15.5V7.56256H17C17.1326 7.56256 17.2598 7.51318 17.3536 7.42527C17.4473 7.33736 17.5 7.21813 17.5 7.09381C17.5 6.96949 17.4473 6.85026 17.3536 6.76235C17.2598 6.67445 17.1326 6.62506 17 6.62506H15.4425C15.376 6.30684 15.1979 6.01862 14.9365 5.80627C14.6751 5.59391 14.3454 5.46963 14 5.45319H11.75V4.98444C11.75 4.86012 11.6973 4.74089 11.6036 4.65298C11.5098 4.56507 11.3826 4.51569 11.25 4.51569H5.405C5.03237 4.51569 4.675 4.65446 4.41151 4.90148C4.14803 5.1485 4 5.48353 4 5.83287V11.1672C4 11.5166 4.14803 11.8516 4.41151 12.0986C4.675 12.3457 5.03237 12.4844 5.405 12.4844H11.25C11.3826 12.4844 11.5098 12.4351 11.6036 12.3471C11.6973 12.2592 11.75 12.14 11.75 12.0157V6.39069H14C14.27 6.39069 14.5 6.70006 14.5 7.06803V9.93209C14.5 10.3001 14.27 10.6094 14 10.6094H12.75C12.6174 10.6094 12.4902 10.6588 12.3964 10.7467C12.3027 10.8346 12.25 10.9539 12.25 11.0782C12.25 11.2025 12.3027 11.3217 12.3964 11.4096C12.4902 11.4976 12.6174 11.5469 12.75 11.5469H14C14.3454 11.5305 14.6751 11.4062 14.9365 11.1939C15.1979 10.9815 15.376 10.6933 15.4425 10.3751H17C17.1326 10.3751 17.2598 10.3257 17.3536 10.2378C17.4473 10.1499 17.5 10.0306 17.5 9.90631C17.5 9.78199 17.4473 9.66276 17.3536 9.57485C17.2598 9.48695 17.1326 9.43756 17 9.43756Z" fill="#7B7269"/>
<rect x="1.29456" y="2.8024" width="2" height="18.2296" transform="rotate(-48.9323 1.29456 2.8024)" fill="#7B7269" stroke="#FDFAF7"/>
</svg>
