<svg width="15" height="15" viewBox="0 0 15 15" fill="none" xmlns="http://www.w3.org/2000/svg">
<path d="M3.41797 5.625C4.62609 5.625 5.60547 4.64562 5.60547 3.4375C5.60547 2.22938 4.62609 1.25 3.41797 1.25C2.20985 1.25 1.23047 2.22938 1.23047 3.4375C1.23047 4.64562 2.20985 5.625 3.41797 5.625Z" stroke="#292D32" stroke-width="1.2"/>
<path d="M10.6055 9.375H12.4805C13.168 9.375 13.7305 9.9375 13.7305 10.625V12.5C13.7305 13.1875 13.168 13.75 12.4805 13.75H10.6055C9.91797 13.75 9.35547 13.1875 9.35547 12.5V10.625C9.35547 9.9375 9.91797 9.375 10.6055 9.375Z" stroke="#292D32" stroke-width="1.2"/>
<path d="M7.49859 3.125H9.17359C10.3298 3.125 10.8673 4.55625 9.99859 5.31875L5.00484 9.6875C4.13609 10.4438 4.67359 11.875 5.82359 11.875H7.49859" stroke="#292D32" stroke-width="1.2" stroke-linecap="round" stroke-linejoin="round"/>
<path d="M3.4298 3.4375H3.43702" stroke="#292D32" stroke-width="2" stroke-linecap="round" stroke-linejoin="round"/>
<path d="M11.5548 11.5625H11.562" stroke="#292D32" stroke-width="2" stroke-linecap="round" stroke-linejoin="round"/>
</svg>
