<svg width="40" height="40" viewBox="0 0 40 40" fill="none" xmlns="http://www.w3.org/2000/svg">
<g clip-path="url(#clip0_299_2056)">
<path d="M40 20C40 8.9543 31.0457 0 20 0C8.9543 0 0 8.9543 0 20C0 31.0457 8.9543 40 20 40C31.0457 40 40 31.0457 40 20Z" fill="url(#paint0_linear_299_2056)"/>
<path d="M28.3359 15.416H23.3359" stroke="white" stroke-width="1.5" stroke-miterlimit="10" stroke-linecap="round" stroke-linejoin="round"/>
<path d="M14.9974 15.416H11.6641" stroke="white" stroke-width="1.5" stroke-miterlimit="10" stroke-linecap="round" stroke-linejoin="round"/>
<path d="M18.3307 18.3333C19.9416 18.3333 21.2474 17.0275 21.2474 15.4167C21.2474 13.8058 19.9416 12.5 18.3307 12.5C16.7199 12.5 15.4141 13.8058 15.4141 15.4167C15.4141 17.0275 16.7199 18.3333 18.3307 18.3333Z" stroke="white" stroke-width="1.5" stroke-miterlimit="10" stroke-linecap="round" stroke-linejoin="round"/>
<path d="M28.3333 24.584H25" stroke="white" stroke-width="1.5" stroke-miterlimit="10" stroke-linecap="round" stroke-linejoin="round"/>
<path d="M16.6641 24.584H11.6641" stroke="white" stroke-width="1.5" stroke-miterlimit="10" stroke-linecap="round" stroke-linejoin="round"/>
<path d="M21.6667 27.4993C23.2775 27.4993 24.5833 26.1935 24.5833 24.5827C24.5833 22.9719 23.2775 21.666 21.6667 21.666C20.0558 21.666 18.75 22.9719 18.75 24.5827C18.75 26.1935 20.0558 27.4993 21.6667 27.4993Z" stroke="white" stroke-width="1.5" stroke-miterlimit="10" stroke-linecap="round" stroke-linejoin="round"/>
</g>
<defs>
<linearGradient id="paint0_linear_299_2056" x1="19.0256" y1="-6.19469" x2="20.9757" y2="26.0764" gradientUnits="userSpaceOnUse">
<stop stop-color="#6D5747"/>
<stop offset="1" stop-color="#B88151"/>
</linearGradient>
<clipPath id="clip0_299_2056">
<rect width="40" height="40" fill="white"/>
</clipPath>
</defs>
</svg>
