<svg width="31" height="44" viewBox="0 0 31 44" fill="none" xmlns="http://www.w3.org/2000/svg">
<path d="M15.3083 7.40001H19.6834" stroke="white" stroke-width="1.5" stroke-linecap="round" stroke-linejoin="round"/>
<path d="M10.3167 7.40001L10.9417 8.02501L12.8167 6.15001" stroke="white" stroke-width="1.5" stroke-linecap="round" stroke-linejoin="round"/>
<path d="M15.3083 13.2333H19.6834" stroke="white" stroke-width="1.5" stroke-linecap="round" stroke-linejoin="round"/>
<path d="M10.3167 13.2333L10.9417 13.8583L12.8167 11.9833" stroke="white" stroke-width="1.5" stroke-linecap="round" stroke-linejoin="round"/>
<path d="M12.5 18.3333H17.5C21.6667 18.3333 23.3334 16.6667 23.3334 12.5V7.5C23.3334 3.33333 21.6667 1.66666 17.5 1.66666H12.5C8.33335 1.66666 6.66669 3.33333 6.66669 7.5V12.5C6.66669 16.6667 8.33335 18.3333 12.5 18.3333Z" stroke="white" stroke-width="1.5" stroke-linecap="round" stroke-linejoin="round"/>
<path d="M5.58 34.704C6.052 34.792 6.44 35.028 6.744 35.412C7.048 35.796 7.2 36.236 7.2 36.732C7.2 37.18 7.088 37.576 6.864 37.92C6.648 38.256 6.332 38.52 5.916 38.712C5.5 38.904 5.008 39 4.44 39H0.828V30.624H4.284C4.852 30.624 5.34 30.716 5.748 30.9C6.164 31.084 6.476 31.34 6.684 31.668C6.9 31.996 7.008 32.368 7.008 32.784C7.008 33.272 6.876 33.68 6.612 34.008C6.356 34.336 6.012 34.568 5.58 34.704ZM2.508 34.08H4.044C4.444 34.08 4.752 33.992 4.968 33.816C5.184 33.632 5.292 33.372 5.292 33.036C5.292 32.7 5.184 32.44 4.968 32.256C4.752 32.072 4.444 31.98 4.044 31.98H2.508V34.08ZM4.2 37.632C4.608 37.632 4.924 37.536 5.148 37.344C5.38 37.152 5.496 36.88 5.496 36.528C5.496 36.168 5.376 35.888 5.136 35.688C4.896 35.48 4.572 35.376 4.164 35.376H2.508V37.632H4.2ZM11.4909 39.108C10.8509 39.108 10.2749 38.968 9.76294 38.688C9.25094 38.4 8.84694 37.996 8.55094 37.476C8.26294 36.956 8.11894 36.356 8.11894 35.676C8.11894 34.996 8.26694 34.396 8.56294 33.876C8.86694 33.356 9.27894 32.956 9.79894 32.676C10.3189 32.388 10.8989 32.244 11.5389 32.244C12.1789 32.244 12.7589 32.388 13.2789 32.676C13.7989 32.956 14.2069 33.356 14.5029 33.876C14.8069 34.396 14.9589 34.996 14.9589 35.676C14.9589 36.356 14.8029 36.956 14.4909 37.476C14.1869 37.996 13.7709 38.4 13.2429 38.688C12.7229 38.968 12.1389 39.108 11.4909 39.108ZM11.4909 37.644C11.7949 37.644 12.0789 37.572 12.3429 37.428C12.6149 37.276 12.8309 37.052 12.9909 36.756C13.1509 36.46 13.2309 36.1 13.2309 35.676C13.2309 35.044 13.0629 34.56 12.7269 34.224C12.3989 33.88 11.9949 33.708 11.5149 33.708C11.0349 33.708 10.6309 33.88 10.3029 34.224C9.98294 34.56 9.82294 35.044 9.82294 35.676C9.82294 36.308 9.97894 36.796 10.2909 37.14C10.6109 37.476 11.0109 37.644 11.4909 37.644ZM19.1433 39.108C18.5033 39.108 17.9273 38.968 17.4153 38.688C16.9033 38.4 16.4993 37.996 16.2033 37.476C15.9153 36.956 15.7713 36.356 15.7713 35.676C15.7713 34.996 15.9193 34.396 16.2153 33.876C16.5193 33.356 16.9313 32.956 17.4513 32.676C17.9713 32.388 18.5513 32.244 19.1913 32.244C19.8313 32.244 20.4113 32.388 20.9313 32.676C21.4513 32.956 21.8593 33.356 22.1553 33.876C22.4593 34.396 22.6113 34.996 22.6113 35.676C22.6113 36.356 22.4553 36.956 22.1433 37.476C21.8393 37.996 21.4233 38.4 20.8953 38.688C20.3753 38.968 19.7913 39.108 19.1433 39.108ZM19.1433 37.644C19.4473 37.644 19.7313 37.572 19.9953 37.428C20.2673 37.276 20.4833 37.052 20.6433 36.756C20.8033 36.46 20.8833 36.1 20.8833 35.676C20.8833 35.044 20.7153 34.56 20.3793 34.224C20.0513 33.88 19.6473 33.708 19.1673 33.708C18.6873 33.708 18.2833 33.88 17.9553 34.224C17.6353 34.56 17.4753 35.044 17.4753 35.676C17.4753 36.308 17.6313 36.796 17.9433 37.14C18.2633 37.476 18.6633 37.644 19.1433 37.644ZM27.7796 39L25.5236 36.168V39H23.8436V30.12H25.5236V35.172L27.7556 32.352H29.9396L27.0116 35.688L29.9636 39H27.7796Z" fill="white"/>
</svg>
