<svg width="29" height="44" viewBox="0 0 29 44" fill="none" xmlns="http://www.w3.org/2000/svg">
<g opacity="0.6">
<g opacity="0.8">
<path d="M15.3083 7.40001H19.6833" stroke="white" stroke-width="1.5" stroke-linecap="round" stroke-linejoin="round"/>
<path d="M10.3167 7.40001L10.9417 8.02501L12.8167 6.15001" stroke="white" stroke-width="1.5" stroke-linecap="round" stroke-linejoin="round"/>
<path d="M15.3083 13.2333H19.6833" stroke="white" stroke-width="1.5" stroke-linecap="round" stroke-linejoin="round"/>
<path d="M10.3167 13.2333L10.9417 13.8583L12.8167 11.9833" stroke="white" stroke-width="1.5" stroke-linecap="round" stroke-linejoin="round"/>
<path d="M12.5 18.3333H17.5C21.6667 18.3333 23.3333 16.6667 23.3333 12.5V7.5C23.3333 3.33333 21.6667 1.66667 17.5 1.66667H12.5C8.33333 1.66667 6.66666 3.33333 6.66666 7.5V12.5C6.66666 16.6667 8.33333 18.3333 12.5 18.3333Z" stroke="white" stroke-width="1.5" stroke-linecap="round" stroke-linejoin="round"/>
</g>
<path d="M5.112 34.692C5.416 34.74 5.692 34.864 5.94 35.064C6.196 35.264 6.396 35.512 6.54 35.808C6.692 36.104 6.768 36.42 6.768 36.756C6.768 37.18 6.66 37.564 6.444 37.908C6.228 38.244 5.912 38.512 5.496 38.712C5.088 38.904 4.604 39 4.044 39H0.924V30.636H3.924C4.492 30.636 4.976 30.732 5.376 30.924C5.776 31.108 6.076 31.36 6.276 31.68C6.476 32 6.576 32.36 6.576 32.76C6.576 33.256 6.44 33.668 6.168 33.996C5.904 34.316 5.552 34.548 5.112 34.692ZM2.016 34.248H3.852C4.364 34.248 4.76 34.128 5.04 33.888C5.32 33.648 5.46 33.316 5.46 32.892C5.46 32.468 5.32 32.136 5.04 31.896C4.76 31.656 4.356 31.536 3.828 31.536H2.016V34.248ZM3.948 38.1C4.492 38.1 4.916 37.972 5.22 37.716C5.524 37.46 5.676 37.104 5.676 36.648C5.676 36.184 5.516 35.82 5.196 35.556C4.876 35.284 4.448 35.148 3.912 35.148H2.016V38.1H3.948ZM11.1514 39.108C10.5354 39.108 9.97538 38.968 9.47138 38.688C8.97538 38.408 8.58338 38.012 8.29538 37.5C8.01538 36.98 7.87538 36.38 7.87538 35.7C7.87538 35.028 8.01938 34.436 8.30738 33.924C8.60338 33.404 9.00338 33.008 9.50738 32.736C10.0114 32.456 10.5754 32.316 11.1994 32.316C11.8234 32.316 12.3874 32.456 12.8914 32.736C13.3954 33.008 13.7914 33.4 14.0794 33.912C14.3754 34.424 14.5234 35.02 14.5234 35.7C14.5234 36.38 14.3714 36.98 14.0674 37.5C13.7714 38.012 13.3674 38.408 12.8554 38.688C12.3434 38.968 11.7754 39.108 11.1514 39.108ZM11.1514 38.148C11.5434 38.148 11.9114 38.056 12.2554 37.872C12.5994 37.688 12.8754 37.412 13.0834 37.044C13.2994 36.676 13.4074 36.228 13.4074 35.7C13.4074 35.172 13.3034 34.724 13.0954 34.356C12.8874 33.988 12.6154 33.716 12.2794 33.54C11.9434 33.356 11.5794 33.264 11.1874 33.264C10.7874 33.264 10.4194 33.356 10.0834 33.54C9.75538 33.716 9.49138 33.988 9.29138 34.356C9.09138 34.724 8.99138 35.172 8.99138 35.7C8.99138 36.236 9.08738 36.688 9.27938 37.056C9.47938 37.424 9.74338 37.7 10.0714 37.884C10.3994 38.06 10.7594 38.148 11.1514 38.148ZM18.8272 39.108C18.2112 39.108 17.6512 38.968 17.1472 38.688C16.6512 38.408 16.2592 38.012 15.9712 37.5C15.6912 36.98 15.5512 36.38 15.5512 35.7C15.5512 35.028 15.6952 34.436 15.9832 33.924C16.2792 33.404 16.6792 33.008 17.1832 32.736C17.6872 32.456 18.2512 32.316 18.8752 32.316C19.4992 32.316 20.0632 32.456 20.5672 32.736C21.0712 33.008 21.4672 33.4 21.7552 33.912C22.0512 34.424 22.1992 35.02 22.1992 35.7C22.1992 36.38 22.0472 36.98 21.7432 37.5C21.4472 38.012 21.0432 38.408 20.5312 38.688C20.0192 38.968 19.4512 39.108 18.8272 39.108ZM18.8272 38.148C19.2192 38.148 19.5872 38.056 19.9312 37.872C20.2752 37.688 20.5512 37.412 20.7592 37.044C20.9752 36.676 21.0832 36.228 21.0832 35.7C21.0832 35.172 20.9792 34.724 20.7712 34.356C20.5632 33.988 20.2912 33.716 19.9552 33.54C19.6192 33.356 19.2552 33.264 18.8632 33.264C18.4632 33.264 18.0952 33.356 17.7592 33.54C17.4312 33.716 17.1672 33.988 16.9672 34.356C16.7672 34.724 16.6672 35.172 16.6672 35.7C16.6672 36.236 16.7632 36.688 16.9552 37.056C17.1552 37.424 17.4192 37.7 17.7472 37.884C18.0752 38.06 18.4352 38.148 18.8272 38.148ZM27.3069 39L24.7269 36.096V39H23.6349V30.12H24.7269V35.34L27.2589 32.424H28.7829L25.6869 35.7L28.7949 39H27.3069Z" fill="white"/>
</g>
</svg>
