<svg width="36" height="44" viewBox="0 0 36 44" fill="none" xmlns="http://www.w3.org/2000/svg">
<g opacity="0.6">
<path d="M16.5165 2.36713L12.0248 5.86713C11.2748 6.45046 10.6665 7.69213 10.6665 8.63379V14.8088C10.6665 16.7421 12.2415 18.3255 14.1748 18.3255H23.8248C25.7582 18.3255 27.3332 16.7421 27.3332 14.8171V8.75046C27.3332 7.74213 26.6582 6.45046 25.8332 5.87546L20.6832 2.26713C19.5165 1.45046 17.6415 1.49213 16.5165 2.36713Z" stroke="#FEFEFF" stroke-width="1.5" stroke-linecap="round" stroke-linejoin="round"/>
<path d="M19 14.9912V12.4912" stroke="#FEFEFF" stroke-width="1.5" stroke-linecap="round" stroke-linejoin="round"/>
<path d="M7.368 30.636V39H6.276V35.208H2.016V39H0.924V30.636H2.016V34.308H6.276V30.636H7.368ZM12.1006 39.108C11.4846 39.108 10.9246 38.968 10.4206 38.688C9.92459 38.408 9.53259 38.012 9.24459 37.5C8.96459 36.98 8.82459 36.38 8.82459 35.7C8.82459 35.028 8.96859 34.436 9.25659 33.924C9.55259 33.404 9.95259 33.008 10.4566 32.736C10.9606 32.456 11.5246 32.316 12.1486 32.316C12.7726 32.316 13.3366 32.456 13.8406 32.736C14.3446 33.008 14.7406 33.4 15.0286 33.912C15.3246 34.424 15.4726 35.02 15.4726 35.7C15.4726 36.38 15.3206 36.98 15.0166 37.5C14.7206 38.012 14.3166 38.408 13.8046 38.688C13.2926 38.968 12.7246 39.108 12.1006 39.108ZM12.1006 38.148C12.4926 38.148 12.8606 38.056 13.2046 37.872C13.5486 37.688 13.8246 37.412 14.0326 37.044C14.2486 36.676 14.3566 36.228 14.3566 35.7C14.3566 35.172 14.2526 34.724 14.0446 34.356C13.8366 33.988 13.5646 33.716 13.2286 33.54C12.8926 33.356 12.5286 33.264 12.1366 33.264C11.7366 33.264 11.3686 33.356 11.0326 33.54C10.7046 33.716 10.4406 33.988 10.2406 34.356C10.0406 34.724 9.94059 35.172 9.94059 35.7C9.94059 36.236 10.0366 36.688 10.2286 37.056C10.4286 37.424 10.6926 37.7 11.0206 37.884C11.3486 38.06 11.7086 38.148 12.1006 38.148ZM24.8164 32.304C25.3284 32.304 25.7844 32.412 26.1844 32.628C26.5844 32.836 26.9004 33.152 27.1324 33.576C27.3644 34 27.4804 34.516 27.4804 35.124V39H26.4004V35.28C26.4004 34.624 26.2364 34.124 25.9084 33.78C25.5884 33.428 25.1524 33.252 24.6004 33.252C24.0324 33.252 23.5804 33.436 23.2444 33.804C22.9084 34.164 22.7404 34.688 22.7404 35.376V39H21.6604V35.28C21.6604 34.624 21.4964 34.124 21.1684 33.78C20.8484 33.428 20.4124 33.252 19.8604 33.252C19.2924 33.252 18.8404 33.436 18.5044 33.804C18.1684 34.164 18.0004 34.688 18.0004 35.376V39H16.9084V32.424H18.0004V33.372C18.2164 33.028 18.5044 32.764 18.8644 32.58C19.2324 32.396 19.6364 32.304 20.0764 32.304C20.6284 32.304 21.1164 32.428 21.5404 32.676C21.9644 32.924 22.2804 33.288 22.4884 33.768C22.6724 33.304 22.9764 32.944 23.4004 32.688C23.8244 32.432 24.2964 32.304 24.8164 32.304ZM35.2717 35.46C35.2717 35.668 35.2597 35.888 35.2357 36.12H29.9797C30.0197 36.768 30.2397 37.276 30.6397 37.644C31.0477 38.004 31.5397 38.184 32.1157 38.184C32.5877 38.184 32.9797 38.076 33.2917 37.86C33.6117 37.636 33.8357 37.34 33.9637 36.972H35.1397C34.9637 37.604 34.6117 38.12 34.0837 38.52C33.5557 38.912 32.8997 39.108 32.1157 39.108C31.4917 39.108 30.9317 38.968 30.4357 38.688C29.9477 38.408 29.5637 38.012 29.2837 37.5C29.0037 36.98 28.8637 36.38 28.8637 35.7C28.8637 35.02 28.9997 34.424 29.2717 33.912C29.5437 33.4 29.9237 33.008 30.4117 32.736C30.9077 32.456 31.4757 32.316 32.1157 32.316C32.7397 32.316 33.2917 32.452 33.7717 32.724C34.2517 32.996 34.6197 33.372 34.8757 33.852C35.1397 34.324 35.2717 34.86 35.2717 35.46ZM34.1437 35.232C34.1437 34.816 34.0517 34.46 33.8677 34.164C33.6837 33.86 33.4317 33.632 33.1117 33.48C32.7997 33.32 32.4517 33.24 32.0677 33.24C31.5157 33.24 31.0437 33.416 30.6517 33.768C30.2677 34.12 30.0477 34.608 29.9917 35.232H34.1437Z" fill="white"/>
</g>
</svg>
