<svg width="37" height="44" viewBox="0 0 37 44" fill="none" xmlns="http://www.w3.org/2000/svg">
<path d="M7.776 30.624V39H6.096V35.436H2.508V39H0.828V30.624H2.508V34.068H6.096V30.624H7.776ZM12.3816 39.108C11.7416 39.108 11.1656 38.968 10.6536 38.688C10.1416 38.4 9.73756 37.996 9.44156 37.476C9.15356 36.956 9.00956 36.356 9.00956 35.676C9.00956 34.996 9.15756 34.396 9.45356 33.876C9.75756 33.356 10.1696 32.956 10.6896 32.676C11.2096 32.388 11.7896 32.244 12.4296 32.244C13.0696 32.244 13.6496 32.388 14.1696 32.676C14.6896 32.956 15.0976 33.356 15.3936 33.876C15.6976 34.396 15.8496 34.996 15.8496 35.676C15.8496 36.356 15.6936 36.956 15.3816 37.476C15.0776 37.996 14.6616 38.4 14.1336 38.688C13.6136 38.968 13.0296 39.108 12.3816 39.108ZM12.3816 37.644C12.6856 37.644 12.9696 37.572 13.2336 37.428C13.5056 37.276 13.7216 37.052 13.8816 36.756C14.0416 36.46 14.1216 36.1 14.1216 35.676C14.1216 35.044 13.9536 34.56 13.6176 34.224C13.2896 33.88 12.8856 33.708 12.4056 33.708C11.9256 33.708 11.5216 33.88 11.1936 34.224C10.8736 34.56 10.7136 35.044 10.7136 35.676C10.7136 36.308 10.8696 36.796 11.1816 37.14C11.5016 37.476 11.9016 37.644 12.3816 37.644ZM25.3379 32.256C26.1539 32.256 26.8099 32.508 27.3059 33.012C27.8099 33.508 28.0619 34.204 28.0619 35.1V39H26.3819V35.328C26.3819 34.808 26.2499 34.412 25.9859 34.14C25.7219 33.86 25.3619 33.72 24.9059 33.72C24.4499 33.72 24.0859 33.86 23.8139 34.14C23.5499 34.412 23.4179 34.808 23.4179 35.328V39H21.7379V35.328C21.7379 34.808 21.6059 34.412 21.3419 34.14C21.0779 33.86 20.7179 33.72 20.2619 33.72C19.7979 33.72 19.4299 33.86 19.1579 34.14C18.8939 34.412 18.7619 34.808 18.7619 35.328V39H17.0819V32.352H18.7619V33.156C18.9779 32.876 19.2539 32.656 19.5899 32.496C19.9339 32.336 20.3099 32.256 20.7179 32.256C21.2379 32.256 21.7019 32.368 22.1099 32.592C22.5179 32.808 22.8339 33.12 23.0579 33.528C23.2739 33.144 23.5859 32.836 23.9939 32.604C24.4099 32.372 24.8579 32.256 25.3379 32.256ZM35.8361 35.532C35.8361 35.772 35.8201 35.988 35.7881 36.18H30.9281C30.9681 36.66 31.1361 37.036 31.4321 37.308C31.7281 37.58 32.0921 37.716 32.5241 37.716C33.1481 37.716 33.5921 37.448 33.8561 36.912H35.6681C35.4761 37.552 35.1081 38.08 34.5641 38.496C34.0201 38.904 33.3521 39.108 32.5601 39.108C31.9201 39.108 31.3441 38.968 30.8321 38.688C30.3281 38.4 29.9321 37.996 29.6441 37.476C29.3641 36.956 29.2241 36.356 29.2241 35.676C29.2241 34.988 29.3641 34.384 29.6441 33.864C29.9241 33.344 30.3161 32.944 30.8201 32.664C31.3241 32.384 31.9041 32.244 32.5601 32.244C33.1921 32.244 33.7561 32.38 34.2521 32.652C34.7561 32.924 35.1441 33.312 35.4161 33.816C35.6961 34.312 35.8361 34.884 35.8361 35.532ZM34.0961 35.052C34.0881 34.62 33.9321 34.276 33.6281 34.02C33.3241 33.756 32.9521 33.624 32.5121 33.624C32.0961 33.624 31.7441 33.752 31.4561 34.008C31.1761 34.256 31.0041 34.604 30.9401 35.052H34.0961Z" fill="white"/>
<path d="M24.7 5.68329L19.9 2.32495C18.5917 1.40829 16.5833 1.45829 15.325 2.43329L11.15 5.69162C10.3167 6.34162 9.65833 7.67495 9.65833 8.72495V14.475C9.65833 16.6 11.3833 18.3333 13.5083 18.3333H22.4917C24.6167 18.3333 26.3417 16.6083 26.3417 14.4833V8.83329C26.3417 7.70829 25.6167 6.32495 24.7 5.68329ZM18.625 15C18.625 15.3416 18.3417 15.625 18 15.625C17.6583 15.625 17.375 15.3416 17.375 15V12.5C17.375 12.1583 17.6583 11.875 18 11.875C18.3417 11.875 18.625 12.1583 18.625 12.5V15Z" fill="white"/>
</svg>
