<svg width="37" height="44" viewBox="0 0 37 44" fill="none" xmlns="http://www.w3.org/2000/svg">
<g opacity="0.6">
<g opacity="0.8">
<path d="M19.1331 9.05866C19.0498 9.05033 18.9498 9.05033 18.8581 9.05866C16.8748 8.99199 15.2998 7.36699 15.2998 5.36699C15.2998 3.32533 16.9498 1.66699 18.9998 1.66699C21.0415 1.66699 22.6998 3.32533 22.6998 5.36699C22.6915 7.36699 21.1165 8.99199 19.1331 9.05866Z" stroke="white" stroke-width="1.5" stroke-linecap="round" stroke-linejoin="round"/>
<path d="M14.9666 12.133C12.9499 13.483 12.9499 15.683 14.9666 17.0247C17.2583 18.558 21.0166 18.558 23.3083 17.0247C25.3249 15.6747 25.3249 13.4747 23.3083 12.133C21.0249 10.608 17.2666 10.608 14.9666 12.133Z" stroke="white" stroke-width="1.5" stroke-linecap="round" stroke-linejoin="round"/>
</g>
<path d="M6.516 33.084C6.516 33.78 6.276 34.36 5.796 34.824C5.324 35.28 4.6 35.508 3.624 35.508H2.016V39H0.924V30.636H3.624C4.568 30.636 5.284 30.864 5.772 31.32C6.268 31.776 6.516 32.364 6.516 33.084ZM3.624 34.608C4.232 34.608 4.68 34.476 4.968 34.212C5.256 33.948 5.4 33.572 5.4 33.084C5.4 32.052 4.808 31.536 3.624 31.536H2.016V34.608H3.624ZM8.96522 33.492C9.15722 33.116 9.42922 32.824 9.78122 32.616C10.1412 32.408 10.5772 32.304 11.0892 32.304V33.432H10.8012C9.57722 33.432 8.96522 34.096 8.96522 35.424V39H7.87322V32.424H8.96522V33.492ZM15.2178 39.108C14.6018 39.108 14.0418 38.968 13.5378 38.688C13.0418 38.408 12.6498 38.012 12.3618 37.5C12.0818 36.98 11.9418 36.38 11.9418 35.7C11.9418 35.028 12.0858 34.436 12.3738 33.924C12.6698 33.404 13.0698 33.008 13.5738 32.736C14.0778 32.456 14.6418 32.316 15.2658 32.316C15.8898 32.316 16.4538 32.456 16.9578 32.736C17.4618 33.008 17.8578 33.4 18.1458 33.912C18.4418 34.424 18.5898 35.02 18.5898 35.7C18.5898 36.38 18.4378 36.98 18.1338 37.5C17.8378 38.012 17.4338 38.408 16.9218 38.688C16.4098 38.968 15.8418 39.108 15.2178 39.108ZM15.2178 38.148C15.6098 38.148 15.9778 38.056 16.3218 37.872C16.6658 37.688 16.9418 37.412 17.1498 37.044C17.3658 36.676 17.4738 36.228 17.4738 35.7C17.4738 35.172 17.3698 34.724 17.1618 34.356C16.9538 33.988 16.6818 33.716 16.3458 33.54C16.0098 33.356 15.6458 33.264 15.2538 33.264C14.8538 33.264 14.4858 33.356 14.1498 33.54C13.8218 33.716 13.5578 33.988 13.3578 34.356C13.1578 34.724 13.0578 35.172 13.0578 35.7C13.0578 36.236 13.1538 36.688 13.3458 37.056C13.5458 37.424 13.8098 37.7 14.1378 37.884C14.4658 38.06 14.8258 38.148 15.2178 38.148ZM22.7016 33.324H21.3216V39H20.2296V33.324H19.3776V32.424H20.2296V31.956C20.2296 31.22 20.4176 30.684 20.7936 30.348C21.1776 30.004 21.7896 29.832 22.6296 29.832V30.744C22.1496 30.744 21.8096 30.84 21.6096 31.032C21.4176 31.216 21.3216 31.524 21.3216 31.956V32.424H22.7016V33.324ZM24.5388 31.356C24.3308 31.356 24.1548 31.284 24.0108 31.14C23.8668 30.996 23.7948 30.82 23.7948 30.612C23.7948 30.404 23.8668 30.228 24.0108 30.084C24.1548 29.94 24.3308 29.868 24.5388 29.868C24.7388 29.868 24.9068 29.94 25.0428 30.084C25.1868 30.228 25.2588 30.404 25.2588 30.612C25.2588 30.82 25.1868 30.996 25.0428 31.14C24.9068 31.284 24.7388 31.356 24.5388 31.356ZM25.0668 32.424V39H23.9748V32.424H25.0668ZM28.0199 30.12V39H26.9279V30.12H28.0199ZM35.881 35.46C35.881 35.668 35.869 35.888 35.845 36.12H30.589C30.629 36.768 30.849 37.276 31.249 37.644C31.657 38.004 32.149 38.184 32.725 38.184C33.197 38.184 33.589 38.076 33.901 37.86C34.221 37.636 34.445 37.34 34.573 36.972H35.749C35.573 37.604 35.221 38.12 34.693 38.52C34.165 38.912 33.509 39.108 32.725 39.108C32.101 39.108 31.541 38.968 31.045 38.688C30.557 38.408 30.173 38.012 29.893 37.5C29.613 36.98 29.473 36.38 29.473 35.7C29.473 35.02 29.609 34.424 29.881 33.912C30.153 33.4 30.533 33.008 31.021 32.736C31.517 32.456 32.085 32.316 32.725 32.316C33.349 32.316 33.901 32.452 34.381 32.724C34.861 32.996 35.229 33.372 35.485 33.852C35.749 34.324 35.881 34.86 35.881 35.46ZM34.753 35.232C34.753 34.816 34.661 34.46 34.477 34.164C34.293 33.86 34.041 33.632 33.721 33.48C33.409 33.32 33.061 33.24 32.677 33.24C32.125 33.24 31.653 33.416 31.261 33.768C30.877 34.12 30.657 34.608 30.601 35.232H34.753Z" fill="white"/>
</g>
</svg>
