<svg width="12" height="13" viewBox="0 0 12 13" fill="none" xmlns="http://www.w3.org/2000/svg">
<path d="M5.17652 1.19526C5.57396 0.618381 6.42604 0.618381 6.82348 1.19526L8.26728 3.29088C8.39758 3.48 8.58899 3.61851 8.80937 3.68313L11.2513 4.39918C11.9271 4.59737 12.1918 5.41349 11.7609 5.9706L10.2129 7.97187C10.0716 8.15454 9.99792 8.38048 10.0043 8.61133L10.0742 11.1405C10.0936 11.8422 9.40292 12.345 8.74113 12.1109L6.33349 11.2592C6.11771 11.1829 5.88229 11.1829 5.66651 11.2592L3.25887 12.1109C2.59708 12.345 1.90636 11.8422 1.92577 11.1405L1.99569 8.61133C2.00208 8.38048 1.92836 8.15454 1.78707 7.97187L0.23913 5.9706C-0.191781 5.41349 0.0728862 4.59737 0.74874 4.39918L3.19063 3.68313C3.411 3.61851 3.60242 3.48 3.73272 3.29088L5.17652 1.19526Z" fill="#FFC703"/>
</svg>
