<svg width="18" height="16" viewBox="0 0 18 16" fill="none" xmlns="http://www.w3.org/2000/svg">
<path fill-rule="evenodd" clip-rule="evenodd" d="M9.22212 5.83311C11.0276 5.83319 12.764 6.51854 14.0725 7.74752C14.171 7.84241 14.3285 7.84121 14.4255 7.74484L15.3674 6.80574C15.4166 6.75687 15.444 6.69066 15.4436 6.62177C15.4431 6.55289 15.415 6.487 15.3653 6.43869C11.9309 3.1871 6.5128 3.1871 3.07844 6.43869C3.02869 6.48696 3.00046 6.55283 3.00001 6.62172C2.99955 6.6906 3.02689 6.75683 3.076 6.80574L4.01815 7.74484C4.11513 7.84135 4.27274 7.84255 4.37122 7.74752C5.67987 6.51846 7.41649 5.83311 9.22212 5.83311ZM9.22402 8.88911C10.216 8.88905 11.1726 9.25331 11.9079 9.91111C12.0073 10.0045 12.164 10.0024 12.261 9.90655L13.2018 8.96745C13.2513 8.9182 13.2788 8.85137 13.2781 8.78193C13.2774 8.7125 13.2485 8.64624 13.1979 8.59799C10.9588 6.54025 7.49115 6.54025 5.25199 8.59799C5.20141 8.64624 5.17255 8.71253 5.17189 8.78199C5.17122 8.85145 5.19881 8.91827 5.24846 8.96745L6.18898 9.90655C6.28593 10.0024 6.44259 10.0045 6.54205 9.91111C7.27687 9.25374 8.23269 8.88951 9.22402 8.88911ZM11.1053 10.945C11.1067 11.0146 11.079 11.0817 11.0287 11.1305L9.40131 12.753C9.35361 12.8007 9.28857 12.8275 9.2207 12.8275C9.15284 12.8275 9.0878 12.8007 9.04009 12.753L7.41245 11.1305C7.36216 11.0817 7.3345 11.0145 7.33599 10.9449C7.33749 10.8753 7.368 10.8093 7.42032 10.7627C8.45963 9.89422 9.98178 9.89422 11.0211 10.7627C11.0734 10.8094 11.1038 10.8753 11.1053 10.945Z" fill="#7B7269"/>
<rect x="1.29456" y="2.8024" width="2" height="18.2296" transform="rotate(-48.9323 1.29456 2.8024)" fill="#7B7269" stroke="#FDFAF7"/>
</svg>
