<svg width="13" height="9" viewBox="0 0 13 9" fill="none" xmlns="http://www.w3.org/2000/svg">
<path fill-rule="evenodd" clip-rule="evenodd" d="M6.22212 1.83311C8.02757 1.83319 9.76399 2.51854 11.0725 3.74752C11.171 3.84241 11.3285 3.84121 11.4255 3.74484L12.3674 2.80574C12.4166 2.75687 12.444 2.69066 12.4436 2.62177C12.4431 2.55289 12.415 2.487 12.3653 2.43869C8.9309 -0.812898 3.5128 -0.812898 0.0784405 2.43869C0.0286914 2.48696 0.000464422 2.55283 5.67962e-06 2.62172C-0.000453063 2.6906 0.0268943 2.75683 0.0759962 2.80574L1.01815 3.74484C1.11513 3.84135 1.27274 3.84255 1.37122 3.74752C2.67987 2.51846 4.41649 1.83311 6.22212 1.83311ZM6.22402 4.88911C7.216 4.88905 8.17258 5.25331 8.90789 5.91111C9.00734 6.00447 9.16401 6.00244 9.26096 5.90655L10.2018 4.96745C10.2513 4.9182 10.2788 4.85137 10.2781 4.78193C10.2774 4.7125 10.2485 4.64624 10.1979 4.59799C7.95878 2.54025 4.49115 2.54025 2.25199 4.59799C2.20141 4.64624 2.17255 4.71253 2.17189 4.78199C2.17122 4.85145 2.19881 4.91827 2.24846 4.96745L3.18898 5.90655C3.28593 6.00244 3.44259 6.00447 3.54205 5.91111C4.27687 5.25374 5.23269 4.88951 6.22402 4.88911ZM8.10528 6.94496C8.10671 7.01459 8.07901 7.08173 8.02869 7.13051L6.40131 8.753C6.35361 8.80068 6.28857 8.82752 6.2207 8.82752C6.15284 8.82752 6.0878 8.80068 6.04009 8.753L4.41245 7.13051C4.36216 7.08169 4.3345 7.01454 4.33599 6.9449C4.33749 6.87527 4.368 6.80933 4.42032 6.76266C5.45963 5.89422 6.98178 5.89422 8.02109 6.76266C8.07337 6.80937 8.10384 6.87533 8.10528 6.94496Z" fill="#7B7269"/>
</svg>
